<mxfile host="app.diagrams.net" modified="2022-09-13T06:32:12.890Z" agent="5.0 (Windows NT 10.0; Win64; x64) AppleWebKit/537.36 (KHTML, like Gecko) Chrome/105.0.0.0 Safari/537.36" etag="VVcTgMj2e0fFM--cnAEX" version="20.3.0" type="github">
  <diagram id="SD7wtVLWdLZqCJsdbgyi" name="Page-1">
    <mxGraphModel dx="1038" dy="547" grid="1" gridSize="10" guides="1" tooltips="1" connect="1" arrows="1" fold="1" page="1" pageScale="1" pageWidth="850" pageHeight="1100" math="0" shadow="0">
      <root>
        <mxCell id="0" />
        <mxCell id="1" parent="0" />
        <mxCell id="GReP-WkLu_oh_rYfr5_h-2" value="Живописець-&lt;br&gt;споживач" style="shape=umlActor;verticalLabelPosition=bottom;verticalAlign=top;html=1;outlineConnect=0;" parent="1" vertex="1">
          <mxGeometry x="80" y="10" width="30" height="60" as="geometry" />
        </mxCell>
        <mxCell id="GReP-WkLu_oh_rYfr5_h-4" value="Користувач" style="shape=umlActor;verticalLabelPosition=bottom;verticalAlign=top;html=1;outlineConnect=0;" parent="1" vertex="1">
          <mxGeometry x="160" y="125" width="30" height="60" as="geometry" />
        </mxCell>
        <mxCell id="GReP-WkLu_oh_rYfr5_h-6" value="Сервіс Е-pay" style="shape=umlActor;verticalLabelPosition=bottom;verticalAlign=top;html=1;outlineConnect=0;" parent="1" vertex="1">
          <mxGeometry x="820" y="210" width="30" height="60" as="geometry" />
        </mxCell>
        <mxCell id="GReP-WkLu_oh_rYfr5_h-26" value="&lt;br&gt;" style="endArrow=block;endSize=16;endFill=0;html=1;rounded=0;fontFamily=Times New Roman;fontSize=14;" parent="1" edge="1">
          <mxGeometry width="160" relative="1" as="geometry">
            <mxPoint x="110" y="110" as="sourcePoint" />
            <mxPoint x="150" y="160" as="targetPoint" />
          </mxGeometry>
        </mxCell>
        <mxCell id="GReP-WkLu_oh_rYfr5_h-29" value="Авторизація користувача" style="ellipse;whiteSpace=wrap;html=1;" parent="1" vertex="1">
          <mxGeometry x="270" y="180" width="120" height="40" as="geometry" />
        </mxCell>
        <mxCell id="GReP-WkLu_oh_rYfr5_h-30" value="" style="endArrow=none;html=1;rounded=0;fontFamily=Times New Roman;fontSize=14;" parent="1" edge="1">
          <mxGeometry width="50" height="50" relative="1" as="geometry">
            <mxPoint x="210" y="170" as="sourcePoint" />
            <mxPoint x="260" y="190" as="targetPoint" />
          </mxGeometry>
        </mxCell>
        <mxCell id="GReP-WkLu_oh_rYfr5_h-31" value="Знайти нове житло&amp;nbsp;&lt;br&gt;у живописному місці" style="ellipse;whiteSpace=wrap;html=1;" parent="1" vertex="1">
          <mxGeometry x="470" y="130" width="130" height="50" as="geometry" />
        </mxCell>
        <mxCell id="GReP-WkLu_oh_rYfr5_h-32" value="" style="html=1;verticalAlign=bottom;endArrow=open;dashed=1;endSize=8;rounded=0;exitX=0;exitY=1;exitDx=0;exitDy=0;entryX=1;entryY=0.5;entryDx=0;entryDy=0;" parent="1" source="GReP-WkLu_oh_rYfr5_h-31" target="GReP-WkLu_oh_rYfr5_h-29" edge="1">
          <mxGeometry x="-0.1081" y="-21" relative="1" as="geometry">
            <mxPoint x="470" y="445" as="sourcePoint" />
            <mxPoint x="350" y="425" as="targetPoint" />
            <Array as="points" />
            <mxPoint as="offset" />
          </mxGeometry>
        </mxCell>
        <mxCell id="GReP-WkLu_oh_rYfr5_h-33" value="&lt;span style=&quot;background-color: rgb(255, 255, 255);&quot;&gt;&lt;font style=&quot;font-size: 14px;&quot; face=&quot;Times New Roman&quot;&gt;&amp;lt;&amp;lt;include&amp;gt;&amp;gt;&lt;/font&gt;&lt;/span&gt;" style="text;html=1;align=center;verticalAlign=middle;resizable=0;points=[];autosize=1;strokeColor=none;fillColor=none;rotation=-15;" parent="1" vertex="1">
          <mxGeometry x="375" y="155" width="100" height="30" as="geometry" />
        </mxCell>
        <mxCell id="GReP-WkLu_oh_rYfr5_h-34" value="Оформити &lt;br&gt;договір" style="ellipse;whiteSpace=wrap;html=1;" parent="1" vertex="1">
          <mxGeometry x="450" y="60" width="120" height="40" as="geometry" />
        </mxCell>
        <mxCell id="GReP-WkLu_oh_rYfr5_h-35" value="" style="html=1;verticalAlign=bottom;endArrow=open;dashed=1;endSize=8;rounded=0;exitX=0;exitY=1;exitDx=0;exitDy=0;entryX=0.668;entryY=0.025;entryDx=0;entryDy=0;entryPerimeter=0;" parent="1" source="GReP-WkLu_oh_rYfr5_h-34" target="GReP-WkLu_oh_rYfr5_h-29" edge="1">
          <mxGeometry x="-0.1081" y="-21" relative="1" as="geometry">
            <mxPoint x="520" y="90" as="sourcePoint" />
            <mxPoint x="400" y="70" as="targetPoint" />
            <Array as="points" />
            <mxPoint as="offset" />
          </mxGeometry>
        </mxCell>
        <mxCell id="GReP-WkLu_oh_rYfr5_h-36" value="&lt;span style=&quot;background-color: rgb(255, 255, 255);&quot;&gt;&lt;font style=&quot;font-size: 14px;&quot; face=&quot;Times New Roman&quot;&gt;&amp;lt;&amp;lt;include&amp;gt;&amp;gt;&lt;/font&gt;&lt;/span&gt;" style="text;html=1;align=center;verticalAlign=middle;resizable=0;points=[];autosize=1;strokeColor=none;fillColor=none;rotation=-25;" parent="1" vertex="1">
          <mxGeometry x="350" y="110" width="100" height="30" as="geometry" />
        </mxCell>
        <mxCell id="GReP-WkLu_oh_rYfr5_h-37" value="Співробітник &lt;br&gt;агенції" style="shape=umlActor;verticalLabelPosition=bottom;verticalAlign=top;html=1;outlineConnect=0;" parent="1" vertex="1">
          <mxGeometry x="770" y="80" width="30" height="60" as="geometry" />
        </mxCell>
        <mxCell id="GReP-WkLu_oh_rYfr5_h-38" value="Сплатити &lt;br&gt;житло" style="ellipse;whiteSpace=wrap;html=1;" parent="1" vertex="1">
          <mxGeometry x="415" y="230" width="120" height="40" as="geometry" />
        </mxCell>
        <mxCell id="GReP-WkLu_oh_rYfr5_h-39" value="" style="endArrow=none;html=1;rounded=0;fontFamily=Times New Roman;fontSize=14;" parent="1" edge="1">
          <mxGeometry width="50" height="50" relative="1" as="geometry">
            <mxPoint x="750" y="170" as="sourcePoint" />
            <mxPoint x="550" y="240" as="targetPoint" />
          </mxGeometry>
        </mxCell>
        <mxCell id="GReP-WkLu_oh_rYfr5_h-42" value="" style="html=1;verticalAlign=bottom;endArrow=open;dashed=1;endSize=8;rounded=0;exitX=0;exitY=1;exitDx=0;exitDy=0;entryX=0.632;entryY=0.985;entryDx=0;entryDy=0;entryPerimeter=0;" parent="1" source="GReP-WkLu_oh_rYfr5_h-38" target="GReP-WkLu_oh_rYfr5_h-29" edge="1">
          <mxGeometry x="-0.1081" y="-21" relative="1" as="geometry">
            <mxPoint x="450" y="425" as="sourcePoint" />
            <mxPoint x="330" y="405" as="targetPoint" />
            <Array as="points" />
            <mxPoint as="offset" />
          </mxGeometry>
        </mxCell>
        <mxCell id="GReP-WkLu_oh_rYfr5_h-43" value="&lt;span style=&quot;background-color: rgb(255, 255, 255);&quot;&gt;&lt;font style=&quot;font-size: 14px;&quot; face=&quot;Times New Roman&quot;&gt;&amp;lt;&amp;lt;include&amp;gt;&amp;gt;&lt;/font&gt;&lt;/span&gt;" style="text;html=1;align=center;verticalAlign=middle;resizable=0;points=[];autosize=1;strokeColor=none;fillColor=none;rotation=30;" parent="1" vertex="1">
          <mxGeometry x="325" y="235" width="100" height="30" as="geometry" />
        </mxCell>
        <mxCell id="GReP-WkLu_oh_rYfr5_h-46" value="Е-сплата" style="ellipse;whiteSpace=wrap;html=1;" parent="1" vertex="1">
          <mxGeometry x="580" y="270" width="120" height="40" as="geometry" />
        </mxCell>
        <mxCell id="GReP-WkLu_oh_rYfr5_h-48" value="" style="endArrow=none;html=1;rounded=0;fontFamily=Times New Roman;fontSize=14;" parent="1" edge="1">
          <mxGeometry width="50" height="50" relative="1" as="geometry">
            <mxPoint x="790" y="260" as="sourcePoint" />
            <mxPoint x="710" y="280" as="targetPoint" />
          </mxGeometry>
        </mxCell>
        <mxCell id="GReP-WkLu_oh_rYfr5_h-49" value="" style="html=1;verticalAlign=bottom;endArrow=open;dashed=1;endSize=8;rounded=0;exitX=0.043;exitY=0.715;exitDx=0;exitDy=0;exitPerimeter=0;entryX=1;entryY=0.5;entryDx=0;entryDy=0;" parent="1" source="GReP-WkLu_oh_rYfr5_h-46" target="GReP-WkLu_oh_rYfr5_h-38" edge="1">
          <mxGeometry x="-0.1081" y="-21" relative="1" as="geometry">
            <mxPoint x="590" y="470" as="sourcePoint" />
            <mxPoint x="530" y="470" as="targetPoint" />
            <Array as="points" />
            <mxPoint as="offset" />
          </mxGeometry>
        </mxCell>
        <mxCell id="GReP-WkLu_oh_rYfr5_h-51" value="&lt;span style=&quot;background-color: rgb(255, 255, 255);&quot;&gt;&lt;font style=&quot;font-size: 14px;&quot; face=&quot;Times New Roman&quot;&gt;&amp;lt;&amp;lt;extend&amp;gt;&amp;gt;&lt;/font&gt;&lt;/span&gt;" style="text;html=1;align=center;verticalAlign=middle;resizable=0;points=[];autosize=1;strokeColor=none;fillColor=none;rotation=45;" parent="1" vertex="1">
          <mxGeometry x="500" y="275" width="90" height="30" as="geometry" />
        </mxCell>
        <mxCell id="GReP-WkLu_oh_rYfr5_h-66" value="" style="endArrow=open;endFill=1;endSize=12;html=1;rounded=0;fontFamily=Times New Roman;fontSize=14;" parent="1" edge="1">
          <mxGeometry width="160" relative="1" as="geometry">
            <mxPoint x="750" y="120" as="sourcePoint" />
            <mxPoint x="590" y="80" as="targetPoint" />
          </mxGeometry>
        </mxCell>
        <mxCell id="GReP-WkLu_oh_rYfr5_h-67" value="" style="endArrow=open;endFill=1;endSize=12;html=1;rounded=0;fontFamily=Times New Roman;fontSize=14;exitX=1;exitY=0.5;exitDx=0;exitDy=0;" parent="1" source="GReP-WkLu_oh_rYfr5_h-31" edge="1">
          <mxGeometry width="160" relative="1" as="geometry">
            <mxPoint x="560" y="410" as="sourcePoint" />
            <mxPoint x="740" y="140" as="targetPoint" />
          </mxGeometry>
        </mxCell>
        <mxCell id="GReP-WkLu_oh_rYfr5_h-69" value="" style="endArrow=none;html=1;rounded=0;fontFamily=Times New Roman;fontSize=14;" parent="1" edge="1">
          <mxGeometry width="50" height="50" relative="1" as="geometry">
            <mxPoint x="160" y="60" as="sourcePoint" />
            <mxPoint x="440" y="80" as="targetPoint" />
          </mxGeometry>
        </mxCell>
        <mxCell id="zRZQOYbGXcMYEB2GEpk0-4" value="" style="swimlane;startSize=0;" parent="1" vertex="1">
          <mxGeometry x="250" y="10" width="480" height="330" as="geometry" />
        </mxCell>
      </root>
    </mxGraphModel>
  </diagram>
</mxfile>
